<svg id="Layer_1" data-name="Layer 1" xmlns="http://www.w3.org/2000/svg" viewBox="0 0 48 48"><defs><style>.cls-1{fill:#9dcc6b;}.cls-2{fill:#c6c3d8;}.cls-3{fill:#919191;}.cls-4{fill:#7c7d7d;}.cls-5{fill:#747575;}.cls-6{fill:#dad7e5;}.cls-7{fill:#edebf2;}.cls-8{fill:#fc6;}.cls-9{fill:#db5669;}.cls-10{fill:#84b749;}</style></defs><title>chip, computer, hardware, memory, electronic, device</title><rect class="cls-1" x="2.46" y="-1.46" width="43.08" height="47" transform="translate(1.96 46.04) rotate(-90)"/><rect class="cls-2" x="28.9" y="41.62" width="3.92" height="7.83" transform="translate(-14.69 76.4) rotate(-90)"/><rect class="cls-3" x="22.53" y="44.07" width="2.94" height="1.96" transform="translate(-21.05 69.05) rotate(-90)"/><rect class="cls-3" x="36.24" y="44.07" width="2.94" height="1.96" transform="translate(-7.34 82.76) rotate(-90)"/><rect class="cls-4" x="28.9" y="28.9" width="3.92" height="17.63" transform="translate(-6.85 68.56) rotate(-90)"/><path class="cls-3" d="M21.06,36.73h0a1,1,0,0,1,1,1v1a0,0,0,0,1,0,0h-2a0,0,0,0,1,0,0v-1A1,1,0,0,1,21.06,36.73Z" transform="translate(-16.65 58.77) rotate(-90)"/><path class="cls-3" d="M40.65,36.73h0a1,1,0,0,1,1,1v1a0,0,0,0,1,0,0h-2a0,0,0,0,1,0,0v-1A1,1,0,0,1,40.65,36.73Z" transform="translate(78.35 -2.94) rotate(90)"/><rect class="cls-4" x="28.9" y="23.02" width="3.92" height="17.63" transform="translate(-0.98 62.69) rotate(-90)"/><path class="cls-3" d="M21.06,30.85h0a1,1,0,0,1,1,1v1a0,0,0,0,1,0,0h-2a0,0,0,0,1,0,0v-1A1,1,0,0,1,21.06,30.85Z" transform="translate(-10.77 52.9) rotate(-90)"/><path class="cls-3" d="M40.65,30.85h0a1,1,0,0,1,1,1v1a0,0,0,0,1,0,0h-2a0,0,0,0,1,0,0v-1A1,1,0,0,1,40.65,30.85Z" transform="translate(72.48 -8.81) rotate(90)"/><rect class="cls-3" x="3.93" y="34.28" width="10.77" height="11.75" transform="translate(-30.84 49.47) rotate(-90)"/><rect class="cls-5" x="5.89" y="36.24" width="6.85" height="7.83" transform="translate(-30.84 49.47) rotate(-90)"/><rect class="cls-5" x="8.33" y="42.6" width="1.96" height="7.83" transform="translate(-37.21 55.83) rotate(-90)"/><rect class="cls-2" x="24" y="7.35" width="13.71" height="13.71" transform="translate(16.65 45.06) rotate(-90)"/><rect class="cls-6" x="25.96" y="9.31" width="9.79" height="9.79" rx="0.98" transform="translate(16.65 45.06) rotate(-90)"/><rect class="cls-7" x="27.92" y="15.19" width="1.96" height="1.96" transform="translate(12.73 45.06) rotate(-90)"/><rect class="cls-3" x="22.04" y="17.15" width="1.96" height="1.96" transform="translate(4.9 41.15) rotate(-90)"/><rect class="cls-3" x="22.04" y="13.23" width="1.96" height="1.96" transform="translate(8.81 37.23) rotate(-90)"/><rect class="cls-3" x="22.04" y="9.31" width="1.96" height="1.96" transform="translate(12.73 33.31) rotate(-90)"/><rect class="cls-3" x="37.71" y="17.15" width="1.96" height="1.96" transform="translate(20.56 56.81) rotate(-90)"/><rect class="cls-3" x="37.71" y="13.23" width="1.96" height="1.96" transform="translate(24.48 52.9) rotate(-90)"/><rect class="cls-3" x="37.71" y="9.31" width="1.96" height="1.96" transform="translate(28.4 48.98) rotate(-90)"/><rect class="cls-3" x="33.79" y="21.06" width="1.96" height="1.96" transform="translate(69.54 44.08) rotate(180)"/><rect class="cls-3" x="29.88" y="21.06" width="1.96" height="1.96" transform="translate(61.71 44.08) rotate(180)"/><rect class="cls-3" x="25.96" y="21.06" width="1.96" height="1.96" transform="translate(53.88 44.08) rotate(180)"/><rect class="cls-3" x="33.79" y="5.4" width="1.96" height="1.96" transform="translate(69.54 12.75) rotate(180)"/><rect class="cls-3" x="29.88" y="5.4" width="1.96" height="1.96" transform="translate(61.71 12.75) rotate(180)"/><rect class="cls-3" x="25.96" y="5.4" width="1.96" height="1.96" transform="translate(53.88 12.75) rotate(180)"/><circle class="cls-2" cx="5.4" cy="4.42" r="1.96"/><circle class="cls-2" cx="5.4" cy="11.27" r="1.96"/><circle class="cls-2" cx="5.4" cy="18.13" r="1.96"/><rect class="cls-3" x="1.48" y="26.94" width="7.83" height="1.96" transform="translate(-22.52 33.31) rotate(-90)"/><rect class="cls-3" x="5.4" y="26.94" width="7.83" height="1.96" transform="translate(-18.6 37.23) rotate(-90)"/><rect class="cls-3" x="9.31" y="26.94" width="7.83" height="1.96" transform="translate(-14.69 41.15) rotate(-90)"/><rect class="cls-8" x="13.72" y="14.7" width="3.92" height="6.85" transform="translate(-2.45 33.8) rotate(-90)"/><rect class="cls-9" x="13.72" y="7.84" width="3.92" height="6.85" transform="translate(4.41 26.95) rotate(-90)"/><rect class="cls-10" x="43.58" y="40.65" width="3.92" height="1.96"/><rect class="cls-10" x="43.58" y="36.73" width="3.92" height="1.96"/><rect class="cls-10" x="43.58" y="32.81" width="3.92" height="1.96"/><rect class="cls-10" x="43.58" y="28.9" width="3.92" height="1.96"/><rect class="cls-10" x="43.58" y="24.98" width="3.92" height="1.96"/><rect class="cls-10" x="43.58" y="21.06" width="3.92" height="1.96"/><rect class="cls-10" x="43.58" y="17.15" width="3.92" height="1.96"/><rect class="cls-10" x="43.58" y="13.23" width="3.92" height="1.96"/><rect class="cls-10" x="43.58" y="9.31" width="3.92" height="1.96"/><rect class="cls-10" x="43.58" y="5.4" width="3.92" height="1.96"/><rect class="cls-10" x="43.58" y="1.48" width="3.92" height="1.96"/></svg>